<?xml version="1.0" standalone="no"?>
<!DOCTYPE svg PUBLIC "-//W3C//DTD SVG 20010904//EN"
 "http://www.w3.org/TR/2001/REC-SVG-20010904/DTD/svg10.dtd">
<svg version="1.0" xmlns="http://www.w3.org/2000/svg"
 width="512.000000pt" height="512.000000pt" viewBox="0 0 512.000000 512.000000"
 preserveAspectRatio="xMidYMid meet">

<g transform="translate(0.000000,512.000000) scale(0.100000,-0.100000)"
fill="#7a7a7a" stroke="none">
<path d="M1001 4944 c-169 -45 -301 -180 -346 -351 -23 -86 -23 -3980 0 -4066
45 -173 178 -307 350 -352 52 -13 244 -15 1555 -15 1646 0 1549 -4 1671 61 70
38 157 126 193 197 59 116 56 40 56 1583 0 916 -4 1435 -10 1470 -6 30 -26 88
-46 129 -34 72 -55 95 -632 672 -577 577 -600 598 -672 632 -41 20 -99 40
-129 46 -34 6 -397 10 -995 9 -789 0 -950 -3 -995 -15z m1879 -732 c0 -470 2
-492 61 -603 38 -70 126 -157 197 -193 106 -54 131 -56 594 -56 l428 0 -2
-1389 c-3 -1386 -3 -1390 -24 -1417 -11 -15 -33 -37 -48 -48 -27 -21 -28 -21
-1526 -21 -1498 0 -1499 0 -1526 21 -15 11 -37 33 -48 48 l-21 27 -3 1952 c-1
1074 0 1966 3 1984 7 40 49 91 90 109 24 11 204 13 928 14 l897 0 0 -428z
m763 -530 c-159 -1 -302 0 -320 3 -41 7 -92 50 -109 92 -11 25 -14 102 -14
335 l0 303 365 -365 365 -365 -287 -3z"/>
</g>
</svg>
